<?xml version="1.0" standalone="no"?>
<!DOCTYPE svg PUBLIC "-//W3C//DTD SVG 20010904//EN"
 "http://www.w3.org/TR/2001/REC-SVG-20010904/DTD/svg10.dtd">
<svg version="1.0" xmlns="http://www.w3.org/2000/svg"
 width="192.000000pt" height="192.000000pt" viewBox="0 0 192.000000 192.000000"
 preserveAspectRatio="xMidYMid meet">
<metadata>
Created by potrace 1.16, written by Peter Selinger 2001-2019
</metadata>
<g transform="translate(0.000000,192.000000) scale(0.100000,-0.100000)"
fill="#000000" stroke="none">
<path d="M630 1473 c-60 -10 -124 -37 -169 -73 -107 -85 -146 -248 -88 -372
24 -51 124 -168 143 -168 6 0 26 16 45 36 50 53 90 68 133 50 32 -13 76 -62
89 -98 4 -10 13 -18 22 -18 22 0 92 -67 99 -95 3 -13 16 -27 29 -30 30 -10 73
-51 87 -86 7 -16 22 -31 34 -35 11 -3 38 -22 58 -42 l38 -36 27 25 c32 28 52
51 53 61 0 3 -43 49 -96 101 -96 95 -113 127 -70 135 13 3 49 -26 116 -93 67
-67 102 -95 111 -90 29 17 59 49 59 64 0 9 -43 59 -96 112 -68 68 -95 102 -91
113 12 32 44 14 127 -70 47 -47 93 -90 102 -95 20 -11 78 33 78 60 0 20 -325
361 -343 361 -6 0 -57 -45 -112 -100 l-102 -100 -53 0 c-48 0 -56 4 -91 39
-35 34 -39 44 -39 88 0 58 8 71 109 169 l76 74 -40 35 c-61 53 -175 89 -245
78z"/>
<path d="M1132 1450 c-63 -23 -100 -52 -244 -193 -109 -105 -120 -124 -102
-172 7 -18 55 -45 80 -45 9 0 67 50 129 110 62 61 121 110 131 110 11 0 88
-69 184 -165 183 -184 174 -180 219 -89 29 57 39 132 28 204 -28 187 -240 307
-425 240z"/>
<path d="M597 852 c-26 -26 -47 -55 -47 -63 0 -18 51 -69 68 -69 18 0 100 78
108 102 7 23 -39 78 -66 78 -9 0 -37 -22 -63 -48z"/>
<path d="M722 727 c-29 -29 -52 -60 -52 -68 0 -15 30 -47 58 -64 17 -9 122 91
122 115 0 17 -50 70 -66 70 -5 0 -33 -24 -62 -53z"/>
<path d="M844 609 c-30 -29 -54 -60 -54 -70 0 -17 53 -69 71 -69 19 0 109 94
109 115 0 20 -47 75 -64 75 -4 0 -32 -23 -62 -51z"/>
<path d="M961 476 c-36 -36 -51 -59 -46 -68 17 -28 49 -58 65 -58 16 0 120 99
120 115 0 15 -53 65 -70 65 -8 0 -40 -24 -69 -54z"/>
</g>
</svg>
